<svg id="Flat" height="512" viewBox="0 0 64 64" width="512" xmlns="http://www.w3.org/2000/svg"><path d="m47.827 41.046-8.185-3.093c-1.585-.572-2.642-1.267-2.642-2.953v-5h-10v5c0 1.686-1.057 2.381-2.642 2.953l-8.185 3.093a8 8 0 0 0 -5.173 7.483v12.471h42v-12.471a8 8 0 0 0 -5.173-7.483z" fill="#00796b"/><path d="m27 35c0 1.686-1.057 2.381-2.642 2.953l-8.185 3.093a8 8 0 0 0 -5.173 7.483v12.471h2v-12.471a8 8 0 0 1 5.173-7.483l8.185-3.093a4 4 0 0 0 2.642-3.762v-4.191h-2z" fill="#009588"/><path d="m37 39-5 5-5-5v-9h10z" fill="#f4cda5"/><rect fill="#f4cda5" height="6" rx="3" width="26" x="19" y="18"/><path d="m27 30v7.648a4 4 0 0 0 2-3.457v-4.191z" fill="#fadcb4"/><path d="m37 29h-10v3.142a6.251 6.251 0 0 0 5 2.858 6.253 6.253 0 0 0 5-2.857z" fill="#f2be97"/><path d="m42 17v6.2c0 5.94-6.67 10.8-10 10.8-1.66 0-4.16-1.22-6.25-3.17a10.853 10.853 0 0 1 -3.75-7.63v-6.2c10-1 14-6 14-6a14.934 14.934 0 0 0 6 6z" fill="#fadcb4"/><path d="m24 23v-6h-2v6.2a10.853 10.853 0 0 0 3.75 7.63c2.09 1.95 4.59 3.17 6.25 3.17a11.106 11.106 0 0 1 -8-11z" fill="#f9e5cf"/><path d="m32 30.006a5.8 5.8 0 0 1 -3.627-1.227l1.254-1.558a4.018 4.018 0 0 0 4.746 0l1.254 1.558a5.8 5.8 0 0 1 -3.627 1.227z" fill="#eaa18c"/><path d="m27 22c-1.1 0-2-.673-2-1.5s.9-1.5 2-1.5 2 .673 2 1.5-.9 1.5-2 1.5z" fill="#42210b"/><path d="m37 22c-1.1 0-2-.673-2-1.5s.9-1.5 2-1.5 2 .673 2 1.5-.9 1.5-2 1.5z" fill="#42210b"/><path d="m22 13h20v4h-20z" fill="#004d40"/><path d="m42 13h-22.906a2 2 0 0 1 -.931-3.77l7.9-4.159a18.006 18.006 0 0 1 8.385-2.071h4.721a5 5 0 0 1 4.288 2.428 5 5 0 0 1 0 5.144z" fill="#00796b"/><path d="m17.1 11a1.977 1.977 0 0 0 2 2h22.9l1.2-2z" fill="#00695c"/><path d="m37 10a1 1 0 0 1 -.555-.168l-3-2 1.11-1.664 2.445 1.632 2.445-1.63 1.11 1.664-3 2a1 1 0 0 1 -.555.166z" fill="#fbc02e"/><path d="m34.29 44.12-2.29.38-9-1.5 4-8z" fill="#00695c"/><path d="m27 35-1.671 3.342 1.029-.389a3.992 3.992 0 0 0 1.874-1.412z" fill="#018a7b"/><g fill="#00695c"><path d="m29 45 8-10 4 8z"/><path d="m31 61h-2v-16l2-1z"/><path d="m33 43h2v18h-2z"/></g><path d="m48.6 41.405-2.6 2.595 4 4 2.415-2.415a7.973 7.973 0 0 0 -3.815-4.18z" fill="#616161"/><path d="m11.585 45.585 2.415 2.415 4-4-2.6-2.595a7.973 7.973 0 0 0 -3.815 4.18z" fill="#616161"/><path d="m16.166 42.166-.761-.761a7.973 7.973 0 0 0 -3.82 4.18l1.549 1.549a7.987 7.987 0 0 1 3.032-4.968z" fill="#9e9e9e"/><path d="m20.48 61c-3.356-4.14.111-8.16.263-8.331a1 1 0 0 0 .257-.669v-3h-2v2.633a8.376 8.376 0 0 0 -.934 9.367z" fill="#00695c"/><path d="m43.52 61h2.414a8.376 8.376 0 0 0 -.934-9.367v-2.633h-2v3a1 1 0 0 0 .257.669c.155.172 3.643 4.166.263 8.331z" fill="#00695c"/></svg>